<?xml version="1.0" encoding="UTF-8" standalone="no"?>
<!-- Generator: Adobe Illustrator 19.0.0, SVG Export Plug-In . SVG Version: 6.00 Build 0)  -->

<svg
   version="1.1"
   id="Layer_1"
   x="0px"
   y="0px"
   viewBox="0 0 490.275 490.275"
   style="enable-background:new 0 0 490.275 490.275;"
   xml:space="preserve"
   sodipodi:docname="sailboat-svgrepo-com.svg"
   inkscape:version="1.1 (c68e22c387, 2021-05-23)"
   xmlns:inkscape="http://www.inkscape.org/namespaces/inkscape"
   xmlns:sodipodi="http://sodipodi.sourceforge.net/DTD/sodipodi-0.dtd"
   xmlns="http://www.w3.org/2000/svg"
   xmlns:svg="http://www.w3.org/2000/svg"><defs
   id="defs467">
			
			
			
			
			
			
			
			
		</defs><sodipodi:namedview
   id="namedview465"
   pagecolor="#ffffff"
   bordercolor="#666666"
   borderopacity="1.0"
   inkscape:pageshadow="2"
   inkscape:pageopacity="0.0"
   inkscape:pagecheckerboard="0"
   showgrid="false"
   inkscape:snap-global="false"
   inkscape:zoom="1.6970068"
   inkscape:cx="128.75611"
   inkscape:cy="245.43213"
   inkscape:window-width="1920"
   inkscape:window-height="1017"
   inkscape:window-x="-8"
   inkscape:window-y="-8"
   inkscape:window-maximized="1"
   inkscape:current-layer="g430" />
<g
   id="g432">
	<g
   id="g430">
		<path
   d="m 134.161,131.59 c -0.006,1.692 0.125,2.854 0.171,3.216 l 15.26,-0.982 c 10e-4,-0.917 -0.031,-1.818 -0.095,-2.705 0.078,-2.136 0.602,-5.859 3.059,-8.75 2.65,-3.119 7.231,-4.807 13.617,-5.017 l -0.503,-15.316 c -10.74,0.353 -19.003,3.767 -24.567,10.149 -2.618,-2.59 -5.813,-4.752 -9.548,-6.425 -8.009,-3.589 -15.767,-3.724 -16.625,-3.728 l -0.063,15.324 c 0.051,0 5.369,0.123 10.422,2.388 5.442,2.438 8.302,6.234 8.872,11.846 z"
   id="path412" /><path
   d="m 264,12.87 v 329.476 l 165.113,-79.233 z m 15,51.051 104.724,158.718 c -2.504,2.594 -9.389,8.799 -18.392,9.314 -7.567,0.431 -15.374,-3.303 -23.176,-11.105 C 326.122,204.814 303.497,201.077 279,210.049 Z m 0,162.665 v -0.001 c 13.359,-5.982 35.528,-11.692 52.32,5.099 10.379,10.379 21.39,15.63 32.763,15.629 0.706,0 1.416,-0.021 2.125,-0.061 11.893,-0.68 21.019,-7.061 26.09,-11.619 l 14.028,21.261 -127.326,61.1 z"
   id="path414" /><path
   d="m 50.979,232.056 c -0.006,1.692 0.125,2.854 0.171,3.216 l 15.26,-0.982 c 0.001,-0.917 -0.031,-1.818 -0.095,-2.705 0.078,-2.136 0.602,-5.859 3.059,-8.75 2.65,-3.119 7.231,-4.807 13.617,-5.017 l -0.503,-15.316 c -10.74,0.353 -19.003,3.767 -24.567,10.149 -2.618,-2.59 -5.813,-4.752 -9.548,-6.425 -8.009,-3.589 -15.767,-3.724 -16.625,-3.728 l -0.063,15.324 c 0.051,0 5.369,0.123 10.422,2.388 5.442,2.439 8.302,6.234 8.872,11.846 z"
   id="path420" /><path
   d="m 418.765,163.096 c -0.006,1.692 0.125,2.854 0.171,3.216 l 15.26,-0.982 c 10e-4,-0.917 -0.031,-1.818 -0.095,-2.705 0.078,-2.136 0.602,-5.859 3.059,-8.75 2.65,-3.119 7.231,-4.807 13.617,-5.017 l -0.503,-15.316 c -10.74,0.353 -19.003,3.767 -24.567,10.149 -2.618,-2.59 -5.813,-4.752 -9.548,-6.425 -8.009,-3.589 -15.767,-3.724 -16.625,-3.728 l -0.063,15.324 c 0.051,0 5.369,0.123 10.422,2.388 5.442,2.439 8.302,6.234 8.872,11.846 z"
   id="path422" /><rect
   x="336"
   y="395.87299"
   width="38"
   height="16"
   id="rect424" /><path
   d="m 246,341.874 v 0 V 117.51 L 146.945,341.874 Z M 231,326.873 H 170.439 L 231,190.327 Z"
   id="path426" />
	<path
   style="fill:none;stroke:#000000;stroke-width:15;stroke-linecap:butt;stroke-linejoin:miter;stroke-opacity:1;stroke-miterlimit:4;stroke-dasharray:none"
   d="M 63.052193,377.13461 452.56153,373.0097 373.0097,459.63281 107.24765,461.40063 Z"
   id="path1931" /><path
   style="fill:#000080;fill-opacity:1;stroke-width:8.83909;stroke-miterlimit:4;stroke-dasharray:none"
   d="M 77.118124,419.47388 C 62.977633,392.46013 51.460649,370.29575 51.524828,370.21969 c 0.106135,-0.12578 45.955206,-0.64845 223.960222,-2.55311 142.19299,-1.52147 193.28778,-2.05788 193.39059,-2.03029 0.0843,0.0226 -90.30573,98.60926 -92.28866,100.65749 -0.45045,0.46528 -73.77479,1.14273 -206.58177,1.90861 l -67.1771,0.38741 z m 180.394106,33.65449 c 47.80475,-0.31499 92.63463,-0.57138 99.62195,-0.56977 l 12.70422,0.003 31.49125,-34.25247 c 17.32018,-18.83885 32.14101,-35.05772 32.93517,-36.04193 l 1.44393,-1.78946 -41.80912,0.40917 c -22.99501,0.22504 -102.13592,1.0616 -175.86868,1.85901 -73.73277,0.79741 -135.982074,1.45213 -138.3318,1.45494 -2.425072,0.003 -4.272228,0.2575 -4.272228,0.58887 0,0.32108 8.136727,16.08486 18.081616,35.03062 l 18.081612,34.44684 29.50217,-0.28303 c 16.22619,-0.15567 68.61515,-0.54075 116.41991,-0.85572 z"
   id="path3000" /><path
   style="fill:#000080;fill-opacity:1;stroke-width:8.83909;stroke-miterlimit:4;stroke-dasharray:none"
   d="m 147.51388,341.33629 c 0.14588,-0.24308 21.80755,-49.23375 48.13705,-108.86816 26.3295,-59.63441 48.34899,-109.48689 48.93221,-110.78329 1.02575,-2.28011 1.06174,1.27543 1.102,108.86815 l 0.0416,111.22525 h -49.23906 c -27.08148,0 -49.1197,-0.19888 -48.97383,-0.44195 z m 83.92549,-82.79284 c 0.0824,-37.51458 -0.0694,-68.20833 -0.33723,-68.20833 -0.37194,0 -58.75526,130.83157 -60.54934,135.68541 -0.36299,0.98206 1.22371,1.02854 30.17682,0.88391 l 30.55997,-0.15266 z"
   id="path3039" /><path
   style="fill:#000080;fill-opacity:1;stroke-width:8.83909;stroke-miterlimit:4;stroke-dasharray:none"
   d="M 264.5835,178.12249 V 14.449766 l 2.55067,3.823983 c 18.87812,28.302256 161.33864,244.659001 161.18387,244.792151 -0.11623,0.1 -35.47931,17.09056 -78.58462,37.75682 -43.1053,20.66626 -79.89803,38.33944 -81.7616,39.27375 l -3.38832,1.69874 z m 78.97859,109.30669 c 34.66708,-16.61637 62.93311,-30.47676 62.81339,-30.80086 -0.11973,-0.3241 -3.30148,-5.28484 -7.07057,-11.02385 l -6.85289,-10.43458 -3.83378,2.90177 c -12.93004,9.78672 -28.08489,11.48733 -41.62112,4.67056 -5.28722,-2.66262 -7.81107,-4.49609 -14.97161,-10.87626 -7.01271,-6.24846 -12.27268,-9.19467 -18.93627,-10.6066 -8.39265,-1.77829 -19.14777,-0.64594 -29.35437,3.09056 l -4.71419,1.7258 -0.15092,46.13024 c -0.13514,41.30474 -0.0561,46.09385 0.75518,45.78252 0.49835,-0.19123 29.27007,-13.94292 63.93715,-30.5593 z m 30.67828,-57.70471 c 2.40208,-1.14457 5.61329,-3.24944 7.13603,-4.6775 l 2.7686,-2.59648 -52.15144,-78.96256 c -28.68329,-43.4294 -52.40255,-79.214469 -52.70947,-79.522364 -0.35122,-0.352329 -0.55804,26.698113 -0.55804,72.985554 0,62.09352 0.12593,73.49705 0.80874,73.23503 12.32637,-4.73007 28.41247,-5.75353 39.43658,-2.50909 9.02849,2.65711 14.16379,5.67225 22.97335,13.48856 9.88864,8.77372 14.96771,11.14786 23.16192,10.82669 4.0098,-0.15717 5.45949,-0.51712 9.13373,-2.26784 z"
   id="path3078" /><path
   style="fill:#000080;fill-opacity:1;stroke-width:8.83909;stroke-miterlimit:4;stroke-dasharray:none"
   d="m 418.9697,163.95613 c -0.006,-3.95438 -1.15085,-6.65199 -4.05653,-9.55767 -2.86637,-2.86637 -7.14562,-4.73283 -12.88178,-5.61858 l -2.50441,-0.38672 v -7.03797 c 0,-5.65287 0.17071,-7.10348 0.86741,-7.37083 1.14074,-0.43775 9.60561,1.29436 13.56473,2.77566 2.57668,0.96406 7.79465,4.06731 11.26031,6.69676 0.51586,0.3914 1.5252,-0.16969 3.37879,-1.87827 4.41136,-4.06625 10.31759,-6.46697 18.51254,-7.52482 l 3.09368,-0.39935 v 7.35824 7.35825 l -3.38832,0.60346 c -4.71482,0.83971 -6.21186,1.50547 -8.95223,3.98124 -2.50378,2.26201 -4.15909,6.25729 -4.15909,10.03846 v 1.9086 l -3.68295,0.31828 c -2.02563,0.17506 -5.34029,0.45727 -7.36591,0.62714 l -3.68296,0.30886 -0.003,-2.20074 z"
   id="path3117" /><path
   style="fill:#000080;fill-opacity:1;stroke-width:8.83909;stroke-miterlimit:4;stroke-dasharray:none"
   d="m 134.35421,131.90642 c 0,-7.30926 -6.74227,-13.31032 -16.20368,-14.42232 l -3.24233,-0.38107 v -4.55081 c 0,-2.50294 0.16863,-5.78109 0.37473,-7.28477 0.35715,-2.60564 0.46337,-2.73398 2.26283,-2.73398 5.41727,0 16.14308,4.01969 20.89472,7.83067 l 2.6131,2.09579 2.48165,-2.18444 c 1.36491,-1.20144 3.81538,-2.91034 5.44549,-3.79756 3.3995,-1.85024 11.01412,-3.94446 14.34212,-3.94446 h 2.26283 v 7.36591 7.36591 h -1.58185 c -3.40689,0 -8.57891,1.95113 -10.80949,4.07786 -2.33673,2.22792 -4.1083,6.74118 -4.1083,10.46628 0,1.82491 -0.13169,1.9555 -1.97193,1.9555 -1.08456,0 -4.39922,0.1723 -7.36591,0.38288 l -5.39398,0.38287 z"
   id="path3156" /><path
   style="fill:#000080;fill-opacity:1;stroke-width:8.83909;stroke-miterlimit:4;stroke-dasharray:none"
   d="m 51.26098,232.60641 c -0.0066,-2.8753 -2.134253,-7.79036 -4.190221,-9.67991 -2.077668,-1.9095 -7.586286,-4.26081 -11.665567,-4.97936 l -3.584459,-0.63139 v -7.35825 -7.35824 l 3.093682,0.39935 c 7.803993,1.00739 14.631566,3.57392 19.712522,7.41008 l 3.114829,2.35172 3.062287,-2.4206 c 5.32597,-4.20994 10.663894,-6.3167 18.600461,-7.3412 l 3.093682,-0.39935 v 7.36941 7.36941 l -2.504409,0.387 c -7.461273,1.15296 -11.540255,4.03843 -13.091078,9.26062 -0.497283,1.67454 -0.904152,3.90348 -0.904152,4.95321 v 1.9086 l -3.682955,0.31828 c -2.025626,0.17506 -5.340285,0.45727 -7.365911,0.62714 l -3.682955,0.30886 -0.0058,-2.49538 z"
   id="path3195" /><path
   style="fill:#000080;fill-opacity:1;stroke-width:8.83909;stroke-miterlimit:4;stroke-dasharray:none"
   d="m 336.47479,403.65189 v -7.66055 h 18.56209 18.56209 v 7.66055 7.66054 h -18.56209 -18.56209 z"
   id="path3234" /></g>
</g>
<g
   id="g434">
</g>
<g
   id="g436">
</g>
<g
   id="g438">
</g>
<g
   id="g440">
</g>
<g
   id="g442">
</g>
<g
   id="g444">
</g>
<g
   id="g446">
</g>
<g
   id="g448">
</g>
<g
   id="g450">
</g>
<g
   id="g452">
</g>
<g
   id="g454">
</g>
<g
   id="g456">
</g>
<g
   id="g458">
</g>
<g
   id="g460">
</g>
<g
   id="g462">
</g>
</svg>
