<?xml version="1.0" encoding="UTF-8" standalone="no"?>
<!-- Generator: Adobe Illustrator 19.0.0, SVG Export Plug-In . SVG Version: 6.00 Build 0)  -->

<svg
   version="1.1"
   id="Layer_1"
   x="0px"
   y="0px"
   viewBox="0 0 490.275 490.275"
   style="enable-background:new 0 0 490.275 490.275;"
   xml:space="preserve"
   sodipodi:docname="sailboat.svg"
   inkscape:version="1.1 (c68e22c387, 2021-05-23)"
   xmlns:inkscape="http://www.inkscape.org/namespaces/inkscape"
   xmlns:sodipodi="http://sodipodi.sourceforge.net/DTD/sodipodi-0.dtd"
   xmlns="http://www.w3.org/2000/svg"
   xmlns:svg="http://www.w3.org/2000/svg"><defs
   id="defs121" /><sodipodi:namedview
   id="namedview119"
   pagecolor="#ffffff"
   bordercolor="#666666"
   borderopacity="1.0"
   inkscape:pageshadow="2"
   inkscape:pageopacity="0.0"
   inkscape:pagecheckerboard="0"
   showgrid="false"
   inkscape:zoom="1.7316812"
   inkscape:cx="245.1375"
   inkscape:cy="245.1375"
   inkscape:window-width="1920"
   inkscape:window-height="1017"
   inkscape:window-x="-8"
   inkscape:window-y="-8"
   inkscape:window-maximized="1"
   inkscape:current-layer="Layer_1"
   inkscape:lockguides="false" />
<g
   id="g86"
   transform="translate(-1.7324205,2.8873675)">
	<g
   id="g84">
		<g
   id="g82">
			<path
   d="m 134.161,131.59 c -0.006,1.692 0.125,2.854 0.171,3.216 l 15.26,-0.982 c 10e-4,-0.917 -0.031,-1.818 -0.095,-2.705 0.078,-2.136 0.602,-5.859 3.059,-8.75 2.65,-3.119 7.231,-4.807 13.617,-5.017 l -0.503,-15.316 c -10.74,0.353 -19.003,3.767 -24.567,10.149 -2.618,-2.59 -5.813,-4.752 -9.548,-6.425 -8.009,-3.589 -15.767,-3.724 -16.625,-3.728 l -0.063,15.324 c 0.051,0 5.369,0.123 10.422,2.388 5.442,2.438 8.302,6.234 8.872,11.846 z"
   id="path66"
   style="fill:#000080" />
			<path
   d="m 264,12.87 v 329.476 l 165.113,-79.233 z m 15,51.051 104.724,158.718 c -2.504,2.594 -9.389,8.799 -18.392,9.314 -7.567,0.431 -15.374,-3.303 -23.176,-11.105 C 326.122,204.814 303.497,201.077 279,210.049 Z m 0,162.665 v -0.001 c 13.359,-5.982 35.528,-11.692 52.32,5.099 10.379,10.379 21.39,15.63 32.763,15.629 0.706,0 1.416,-0.021 2.125,-0.061 11.893,-0.68 21.019,-7.061 26.09,-11.619 l 14.028,21.261 -127.326,61.1 z"
   id="path68"
   style="fill:#000080" />
			<path
   d="m 105.727,449.568 c -18.856,5.067 -32.588,15.058 -33.164,15.481 l 9.064,12.356 c 0.121,-0.088 12.311,-8.894 28.485,-13.146 20.453,-5.381 37.716,-1.212 51.311,12.382 l 10.836,-10.836 c -17.592,-17.592 -40.596,-23.208 -66.532,-16.237 z"
   id="path70"
   style="fill:#000080" />
			<path
   d="m 411.581,436.018 60.851,-79.144 H 78.07 l 27.795,39.473 C 43.575,398.042 3.073,416.362 0,417.746 v 16.431 c 0,0 109.727,-49.091 239.379,1.17 39.673,15.384 78.016,20.877 112.87,20.877 84.711,-0.008 134.116,-26.199 137.783,-28.137 l 0.243,-16.834 c -0.617,0.323 -31.328,16.266 -78.694,24.765 z M 244.916,421.055 c -43.897,-17.02 -84.467,-23.612 -119.458,-24.675 -0.107,-0.003 -0.212,-0.004 -0.318,-0.007 0.107,0.003 0.212,0.004 0.319,0.007 l -16.553,-23.507 h 331.042 l -51.071,66.423 c 0,0 -0.001,0 -0.001,0 -41.096,4.497 -91.278,2.185 -143.96,-18.241 z m 164.963,15.254 c -6.322,1.102 -12.928,2.068 -19.798,2.844 6.869,-0.777 13.475,-1.743 19.798,-2.844 z"
   id="path72"
   style="fill:#000080" />
			<path
   d="m 50.979,232.056 c -0.006,1.692 0.125,2.854 0.171,3.216 l 15.26,-0.982 c 0.001,-0.917 -0.031,-1.818 -0.095,-2.705 0.078,-2.136 0.602,-5.859 3.059,-8.75 2.65,-3.119 7.231,-4.807 13.617,-5.017 l -0.503,-15.316 c -10.74,0.353 -19.003,3.767 -24.567,10.149 -2.618,-2.59 -5.813,-4.752 -9.548,-6.425 -8.009,-3.589 -15.767,-3.724 -16.625,-3.728 l -0.063,15.324 c 0.051,0 5.369,0.123 10.422,2.388 5.442,2.439 8.302,6.234 8.872,11.846 z"
   id="path74"
   style="fill:#000080" />
			<path
   d="m 418.765,163.096 c -0.006,1.692 0.125,2.854 0.171,3.216 l 15.26,-0.982 c 10e-4,-0.917 -0.031,-1.818 -0.095,-2.705 0.078,-2.136 0.602,-5.859 3.059,-8.75 2.65,-3.119 7.231,-4.807 13.617,-5.017 l -0.503,-15.316 c -10.74,0.353 -19.003,3.767 -24.567,10.149 -2.618,-2.59 -5.813,-4.752 -9.548,-6.425 -8.009,-3.589 -15.767,-3.724 -16.625,-3.728 l -0.063,15.324 c 0.051,0 5.369,0.123 10.422,2.388 5.442,2.439 8.302,6.234 8.872,11.846 z"
   id="path76"
   style="fill:#000080" />
			<rect
   x="336"
   y="395.87299"
   width="38"
   height="16"
   id="rect78"
   style="fill:#000080" />
			<path
   d="m 246,341.874 v 0 V 117.51 L 146.945,341.874 Z M 231,326.873 H 170.439 L 231,190.327 Z"
   id="path80"
   style="fill:#000080" />
		</g>
	</g>
</g>
<g
   id="g88">
</g>
<g
   id="g90">
</g>
<g
   id="g92">
</g>
<g
   id="g94">
</g>
<g
   id="g96">
</g>
<g
   id="g98">
</g>
<g
   id="g100">
</g>
<g
   id="g102">
</g>
<g
   id="g104">
</g>
<g
   id="g106">
</g>
<g
   id="g108">
</g>
<g
   id="g110">
</g>
<g
   id="g112">
</g>
<g
   id="g114">
</g>
<g
   id="g116">
</g>
</svg>
